#!OML:ASF H:\MichaelJackson\Top Level 1\Subject 1\Session 1\male.ASF
:FULLY-SPECIFIED
:DEGREES
334
root -0.874796 16.472 -16.2244 4.95907 6.81924 -10.6184
lowerback 10.2279 6.07613 8.43738
upperback 3.96305 8.89303 2.17275
thorax -0.598602 4.50641 -3.26633
lowerneck -8.30322 -6.9711 -0.232574
upperneck -2.51775 -9.27616 3.32618
head 0.764079 -4.59104 0.766821
rclavicle -3.08116e-014 -2.127e-014
rhumerus -38.4582 -7.28087 -76.9489
rradius 61.7522
rwrist -19.2914
rhand -26.421 -31.761
rfingers 7.12502
rthumb 0.139129 298.259
lclavicle -3.08116e-014 -2.127e-014
lhumerus -55.8796 -1.9649 94.8219
lradius 54.6572
lwrist 21.6236
lhand -4.32595 11.4553
lfingers 7.12502
lthumb 21.4409 40.2888
rfemur -16.0111 -9.89911 25.7239
rtibia 37.693
rfoot -23.0944 -20.9865
rtoes -11.8597
lfemur -53.7534 10.0691 -6.83318
ltibia 52.018
lfoot -10.3598 1.58414
ltoes 12.0328
335
root -0.902063 16.475 -16.1677 4.99809 7.15352 -10.8476
lowerback 10.164 6.24476 8.45852
upperback 3.92972 9.11751 2.30617
thorax -0.592066 4.61635 -3.15035
lowerneck -8.34905 -7.15944 -0.161504
upperneck -2.41434 -9.53492 3.11818
head 0.793008 -4.72235 0.679479
rclavicle -1.66979e-014 -2.26615e-014
rhumerus -38.6418 -7.76248 -77.7624
rradius 62.0946
rwrist -21.0516
rhand -28.161 -35.14
rfingers 7.12502
rthumb -1.54145 294.886
lclavicle -1.66979e-014 -2.26615e-014
lhumerus -56.2224 -1.78418 94.9476
lradius 54.9267
lwrist 21.9938
lhand -3.64249 12.2392
lfingers 7.12502
lthumb 22.0972 40.9966
rfemur -15.6533 -9.87744 26.1124
rtibia 37.3092
rfoot -23.3765 -21.0425
rtoes -10.9044
lfemur -53.524 9.24258 -6.52135
ltibia 49.6705
lfoot -10.8914 1.76233
ltoes 11.3763
336
root -0.927706 16.4776 -16.1078 5.06476 7.50128 -11.0767
lowerback 10.0362 6.38846 8.42855
upperback 3.88816 9.2992 2.46442
thorax -0.577692 4.70454 -2.97193
lowerneck -8.40599 -7.32163 -0.0745708
upperneck -2.28209 -9.76055 2.88693
head 0.829747 -4.83725 0.582814
rclavicle -4.18442e-014 1.82882e-014
rhumerus -38.7556 -8.19173 -78.4844
rradius 62.22
rwrist -21.4338
rhand -29.3502 -38.3918
rfingers 7.12502
rthumb -2.68996 291.645
lclavicle -4.18442e-014 1.82882e-014
lhumerus -56.5657 -1.53103 95.0696
lradius 55.1749
lwrist 22.4467
lhand -3.27841 12.9426
lfingers 7.12502
lthumb 22.4467 41.6582
rfemur -15.3167 -9.88651 26.4987
rtibia 36.915
rfoot -23.6383 -21.0755
rtoes -9.97622
lfemur -53.2859 8.42996 -6.18053
ltibia 47.2787
lfoot -11.3261 1.9698
ltoes 10.5292
337
root -0.951782 16.4802 -16.0445 5.15899 7.85106 -11.2973
lowerback 9.83058 6.50795 8.31655
upperback 3.84978 9.43454 2.66021
thorax -0.543747 4.7697 -2.69922
lowerneck -8.47724 -7.44884 0.0128391
upperneck -2.13272 -9.93949 2.63323
head 0.871972 -4.92902 0.480045
rclavicle -1.00585e-013 1.51076e-014
rhumerus -38.7844 -8.43567 -79.1439
rradius 62.1478
rwrist -20.8091
rhand -30.0399 -41.3783
rfingers 7.12502
rthumb -3.35595 288.668
lclavicle -1.00585e-013 1.51076e-014
lhumerus -56.9018 -1.18818 95.2088
lradius 55.3871
lwrist 22.8833
lhand -3.22726 13.5113
lfingers 7.12502
lthumb 22.4958 42.221
rfemur -14.9959 -9.91399 26.8739
rtibia 36.5066
rfoot -23.8821 -21.0915
rtoes -9.13943
lfemur -53.0369 7.64589 -5.82738
ltibia 44.8565
lfoot -11.6687 2.2412
ltoes 9.55509
338
root -0.974421 16.4831 -15.9774 5.27937 8.19499 -11.5128
lowerback 9.55298 6.61172 8.12808
upperback 3.80774 9.53676 2.88495
thorax -0.496822 4.81813 -2.34633
lowerneck -8.55173 -7.54382 0.127983
upperneck -1.97357 -10.0775 2.35587
head 0.914258 -5.00097 0.366931
rclavicle -9.99887e-014 -3.1408e-014
rhumerus -38.7215 -8.47356 -79.7573
rradius 61.855
rwrist -19.5836
rhand -30.3189 -43.8537
rfingers 7.12502
rthumb -3.62541 286.197
lclavicle -9.99887e-014 -3.1408e-014
lhumerus -57.253 -0.803233 95.372
lradius 55.5644
lwrist 23.219
lhand -3.46762 13.9137
lfingers 7.12502
lthumb 22.2651 42.6511
rfemur -14.6872 -9.94733 27.2428
rtibia 36.081
rfoot -24.0944 -21.1101
rtoes -8.44142
lfemur -52.7719 6.89278 -5.45505
ltibia 42.4217
lfoot -11.9575 2.60281
ltoes 8.63494
339
root -0.995607 16.4864 -15.9064 5.42594 8.52694 -11.7291
lowerback 9.20476 6.69199 7.86099
upperback 3.76374 9.59643 3.14467
thorax -0.437714 4.84513 -1.90585
lowerneck -8.64061 -7.59567 0.258994
upperneck -1.8004 -10.1592 2.05695
head 0.960782 -5.04517 0.24588
rclavicle -1.25036e-013 -1.98785e-015
rhumerus -38.556 -8.21342 -80.3564
rradius 61.4337
rwrist -18.247
rhand -30.2934 -45.247
rfingers 7.12502
rthumb -3.60083 284.804
lclavicle -1.25036e-013 -1.98785e-015
lhumerus -57.6292 -0.363334 95.5673
lradius 55.7181
lwrist 23.4068
lhand -3.92698 14.0985
lfingers 7.12502
lthumb 21.8241 42.8879
rfemur -14.3881 -9.97564 27.6134
rtibia 35.6347
rfoot -24.2803 -21.1413
rtoes -7.88561
lfemur -52.4943 6.17135 -5.05298
ltibia 39.9952
lfoot -12.1904 3.0754
ltoes 7.77039
340
root -1.01544 16.4898 -15.8314 5.59711 8.84783 -11.9589
lowerback 8.81181 6.76047 7.55864
upperback 3.69548 9.63701 3.40974
thorax -0.388528 4.86173 -1.43717
lowerneck -8.72992 -7.61783 0.456535
upperneck -1.60769 -10.2073 1.74409
head 1.00918 -5.07317 0.110857
rclavicle -3.77691e-014 3.97569e-016
rhumerus -38.3104 -7.69613 -80.9868
rradius 60.902
rwrist -17.0878
rhand -30.1361 -44.8731
rfingers 7.12502
rthumb -3.44894 285.175
lclavicle -3.77691e-014 3.97569e-016
lhumerus -58.0676 0.0330996 95.7812
lradius 55.8635
lwrist 23.4467
lhand -4.61934 14.1088
lfingers 7.12502
lthumb 21.1591 42.9742
rfemur -14.0967 -9.98528 28.0026
rtibia 35.1682
rfoot -24.4551 -21.194
rtoes -7.44962
lfemur -52.2095 5.45632 -4.58633
ltibia 37.6035
lfoot -12.3926 3.67951
ltoes 7.03479
341
root -1.03389 16.4933 -15.7525 5.79147 9.1567 -12.2102
lowerback 8.36186 6.81384 7.21131
upperback 3.61352 9.65257 3.69605
thorax -0.335576 4.8657 -0.916298
lowerneck -8.83805 -7.60703 0.700657
upperneck -1.38787 -10.216 1.41597
head 1.06639 -5.08175 -0.036438
rclavicle -9.78021e-014 -2.0276e-014
rhumerus -37.9556 -6.89309 -81.6368
rradius 60.2779
rwrist -16.266
rhand -30.1207 -43.9535
rfingers 7.12502
rthumb -3.43402 286.094
lclavicle -9.78021e-014 -2.0276e-014
lhumerus -58.5613 0.394578 96.0375
lradius 56.0157
lwrist 23.3676
lhand -5.45926 13.9451
lfingers 7.12502
lthumb 20.3521 42.8987
rfemur -13.8143 -9.96801 28.4206
rtibia 34.6836
rfoot -24.6105 -21.2841
rtoes -7.15147
lfemur -51.9218 4.70881 -4.00869
ltibia 35.2756
lfoot -12.5996 4.42265
ltoes 6.59062
342
root -1.05055 16.4961 -15.6702 6.01684 9.44085 -12.49
lowerback 7.87086 6.85336 6.84468
upperback 3.50657 9.64945 3.99024
thorax -0.291367 4.86004 -0.37341
lowerneck -8.97669 -7.56403 0.994978
upperneck -1.12509 -10.1873 1.07929
head 1.14025 -5.07151 -0.195961
rclavicle -1.42529e-013 -8.34896e-015
rhumerus -37.5204 -5.82662 -82.3113
rradius 59.6387
rwrist -15.7044
rhand -30.0482 -42.3287
rfingers 7.12502
rthumb -3.36397 287.718
lclavicle -1.42529e-013 -8.34896e-015
lhumerus -59.121 0.699399 96.328
lradius 56.1873
lwrist 23.2225
lhand -6.52503 13.7308
lfingers 7.12502
lthumb 19.3276 42.7903
rfemur -13.5589 -9.91522 28.8733
rtibia 34.1889
rfoot -24.7505 -21.3931
rtoes -6.90766
lfemur -51.6472 3.8857 -3.26801
ltibia 33.044
lfoot -12.8199 5.34373
ltoes 6.30879
343
root -1.06574 16.4978 -15.5843 6.26576 9.72127 -12.7945
lowerback 7.355 6.87422 6.46671
upperback 3.36907 9.62399 4.28134
thorax -0.266612 4.84293 0.17403
lowerneck -9.13851 -7.4934 1.33896
upperneck -0.820583 -10.1278 0.753274
head 1.23077 -5.04534 -0.362152
rclavicle -5.62561e-014 2.70347e-014
rhumerus -37.0257 -4.55135 -83.0131
rradius 59.0061
rwrist -15.2366
rhand -29.9121 -40.3482
rfingers 7.12502
rthumb -3.23257 289.697
lclavicle -5.62561e-014 2.70347e-014
lhumerus -59.7567 0.910094 96.6478
lradius 56.3931
lwrist 23.0823
lhand -7.75366 13.5248
lfingers 7.12502
lthumb 18.1459 42.6983
rfemur -13.3252 -9.8283 29.3589
rtibia 33.6949
rfoot -24.8919 -21.5245
rtoes -6.63687
lfemur -51.3938 2.92299 -2.32252
ltibia 30.9399
lfoot -13.0618 6.43462
ltoes 6.1799
344
root -1.07916 16.4979 -15.4954 6.53742 9.99436 -13.1129
lowerback 6.80079 6.87757 6.05354
upperback 3.21586 9.57478 4.58522
thorax -0.244234 4.81442 0.757754
lowerneck -9.31718 -7.3991 1.697
upperneck -0.490468 -10.0392 0.439156
head 1.33406 -5.00411 -0.528693
rclavicle -1.3577e-013 -1.74931e-014
rhumerus -36.4667 -3.11407 -83.6784
rradius 58.3787
rwrist -14.6254
rhand -29.5724 -38.4388
rfingers 7.12502
rthumb -2.90448 291.601
lclavicle -1.3577e-013 -1.74931e-014
lhumerus -60.4454 1.03763 97.0277
lradius 56.6335
lwrist 23.0365
lhand -9.08458 13.3403
lfingers 7.12502
lthumb 16.865 42.628
rfemur -13.1209 -9.71979 29.8611
rtibia 33.2172
rfoot -25.0404 -21.6561
rtoes -6.31443
lfemur -51.1715 1.769 -1.13623
ltibia 28.9943
lfoot -13.3211 7.71753
ltoes 6.14613
